<?xml version="1.0" encoding="utf-8"?>
<!-- Generator: Adobe Illustrator 24.1.0, SVG Export Plug-In . SVG Version: 6.00 Build 0)  -->
<svg version="1.1" id="Capa_1" xmlns="http://www.w3.org/2000/svg" xmlns:xlink="http://www.w3.org/1999/xlink" x="0px" y="0px"
	 viewBox="0 0 128.88 129.6" style="enable-background:new 0 0 128.88 129.6;" xml:space="preserve">
<style type="text/css">
	.st0{fill:#FFFFFF;}
</style>
<path class="st0" d="M0.03,120.21c0-37.27,0-74.53,0-111.8c0.19-0.04,0.23-0.18,0.24-0.35C0.4,6.13,1.29,4.56,2.54,3.12
	c1.39-1.61,3.22-2.45,5.16-3.1c37.83,0,75.66,0,113.48,0c0.08,0.08,0.14,0.21,0.23,0.22c2.67,0.48,4.5,2.13,6.01,4.26
	c0.84,1.19,0.99,2.6,1.44,3.91c0,37.27,0,74.53,0,111.8c-0.19,0.04-0.23,0.18-0.24,0.35c-0.3,4.27-4.68,8.06-8.77,8.06
	c-36.9-0.01-73.8,0-110.7-0.02c-3.39,0-5.82-1.77-7.67-4.46C0.67,122.95,0.43,121.55,0.03,120.21z M50.41,78.91
	c0,9.75,0.02,19.51-0.03,29.26c-0.01,1.1,0.31,1.28,1.32,1.27c5.4-0.05,10.79-0.06,16.19,0.01c1.12,0.02,1.26-0.34,1.26-1.33
	c-0.04-9.91-0.03-19.83-0.01-29.74c0.01-2.2,0.23-4.39,0.73-6.54c0.77-3.35,2.29-6.2,5.69-7.6c2.16-0.89,4.44-1.11,6.71-0.85
	c3.02,0.34,5.43,1.71,6.81,4.62c1.12,2.34,1.59,4.83,1.61,7.35c0.08,10.99,0.04,21.99,0.03,32.98c0,0.6-0.14,1.12,0.86,1.11
	c5.68-0.06,11.35-0.04,17.03-0.01c0.7,0,0.83-0.23,0.84-0.88c0.11-7.46-0.17-14.91,0.17-22.37c0.18-3.84,0.28-7.72-0.17-11.58
	c-0.22-1.93-0.03-3.87-0.21-5.82c-0.34-3.71-1.03-7.3-2.44-10.75c-1.87-4.58-5.15-7.74-9.72-9.53c-2.41-0.94-4.95-1.24-7.52-1.52
	c-3.51-0.39-6.9-0.15-10.18,1.06c-4.21,1.56-7.65,4.16-10.06,8.03c-0.13,0.21-0.16,0.7-0.63,0.56c-0.52-0.15-0.27-0.59-0.28-0.89
	c-0.02-2.08-0.06-4.16,0.01-6.24c0.03-0.86-0.23-1.04-1.06-1.04c-5.28,0.04-10.55,0.05-15.83-0.01c-0.98-0.01-1.15,0.3-1.15,1.19
	C50.42,59.4,50.41,69.15,50.41,78.91z M38.17,79.07c0-9.83-0.01-19.67,0.02-29.5c0-0.87-0.18-1.13-1.1-1.12
	c-5.52,0.05-11.03,0.05-16.55,0c-0.89-0.01-1.11,0.2-1.11,1.1c0.03,19.59,0.03,39.17,0,58.76c0,0.87,0.18,1.13,1.1,1.12
	c5.48-0.05,10.95-0.05,16.43,0c0.99,0.01,1.24-0.22,1.24-1.23C38.16,98.5,38.17,88.79,38.17,79.07z M39.61,28.75
	c0.41-5.59-5.21-10.57-9.93-10.78c-7.43-0.33-11.87,5.31-11.8,10.84c0.09,6.51,4.7,10.88,10.86,10.93
	C34.82,39.8,39.74,35.03,39.61,28.75z"/>
</svg>
